<svg width="287" height="150" viewBox="0 0 287 150" fill="none" xmlns="http://www.w3.org/2000/svg">
<path d="M54.8938 4.18221H33.1909V23.3394H49.4974V26.0376H33.1733V50.0516H30V1.48401H54.8938V4.18221Z" fill="#D9D9D9"/>
<path d="M60.7595 50.0517H57.5686V25.3631L56.3075 13.9662H59.3283L60.5425 24.0844C62.8888 19.1573 66.6134 13.626 72.7548 13.626C78.685 13.626 80.257 19.5855 80.257 24.4188H77.0836C77.0191 21.1164 76.8138 16.3242 72.4967 16.3242C68.8541 16.3242 60.7654 21.9904 60.7654 35.5518L60.7595 50.0517Z" fill="#D9D9D9"/>
<path d="M84.1635 32.179C84.1635 18.2833 91.3137 13.626 97.7894 13.626C103.725 13.626 111.486 17.6088 111.486 32.179C111.486 46.7493 103.796 50.7966 97.7894 50.7966C91.7829 50.7966 84.1635 46.7493 84.1635 32.179ZM108.312 32.179C108.312 25.2282 106.553 16.3418 97.7894 16.3418C89.0261 16.3418 87.3309 25.2458 87.3309 32.179C87.3309 39.1122 89.0906 48.0984 97.7894 48.0984C106.488 48.0984 108.312 39.124 108.312 32.179Z" fill="#D9D9D9"/>
<path d="M120.255 50.0517H117.081V32.179C117.081 26.1081 116.882 20.0371 115.662 13.9662H118.63L119.915 24.2193H120.05C121.399 18.8875 127.088 13.626 132.731 13.626C139.183 13.626 141.031 19.2218 141.031 24.6241V50.0575H137.858V26.1081C137.858 22.0021 137.858 16.3242 132.326 16.3242C127.2 16.3242 120.249 21.4508 120.249 35.3465L120.255 50.0517Z" fill="#D9D9D9"/>
<path d="M170.037 17.0691H156.95V41.4233C156.95 44.8664 158.235 48.1043 162.617 48.1043C166.599 48.1043 169.362 45.1363 170.916 41.7635L173.949 42.5026C171.726 47.0895 167.808 50.8025 162.482 50.8025C157.871 50.7966 153.765 48.5677 153.765 39.5287V17.0691H145.753V14.3709H153.765V2.90356H156.939V14.3709H170.025L170.037 17.0691Z" fill="#D9D9D9"/>
<path d="M204.21 47.5587C200.104 49.377 196.045 50.7965 191.458 50.7965C180.999 50.7965 177.157 41.4115 177.157 32.3784C177.157 23.3453 181.14 13.6083 191.663 13.6083C197.67 13.6083 204.75 17.9254 204.75 32.701H180.354C180.941 45.2476 186.155 48.0807 191.622 48.0807C195.669 48.0807 199.517 46.5967 202.89 44.5613L204.21 47.5587ZM201.576 30.0204C201.916 23.879 198.274 16.3241 191.253 16.3241C184.231 16.3241 180.108 23.7441 180.325 30.0204H201.576Z" fill="#D9D9D9"/>
<path d="M213.337 50.0517H210.163V32.179C210.163 26.1081 209.958 20.0371 208.744 13.9662H211.712L213.008 24.2193H213.143C214.492 18.8875 220.182 13.626 225.825 13.626C232.277 13.626 234.125 19.2218 234.125 24.6241V50.0575H230.951V26.1081C230.951 22.0021 230.951 16.3242 225.42 16.3242C220.293 16.3242 213.343 21.4508 213.343 35.3465L213.337 50.0517Z" fill="#D9D9D9"/>
<path d="M265.547 37.505C265.547 41.8866 265.887 46.2037 267.166 50.4094L264.198 50.8142L262.919 44.9485C262.06 46.7331 260.707 48.2341 259.021 49.2737C257.334 50.3132 255.386 50.8478 253.405 50.8142C247.399 50.8142 239.574 45.8929 239.574 31.9913C239.574 17.6908 248.683 13.6435 253.605 13.6435C256.796 13.6309 259.897 14.6999 262.403 16.6761V0H265.576L265.547 37.505ZM262.374 19.8318C260.151 17.8785 257.382 16.3124 254.414 16.3124C250.367 16.3124 242.741 19.081 242.741 32.1496C242.741 44.4675 249.416 48.069 253.47 48.069C257.992 48.069 260.89 44.7608 262.374 40.9188V19.8318Z" fill="#D9D9D9"/>
<path d="M157.293 119.331C157.34 119.577 157.377 119.823 157.404 120.07C157.432 120.316 157.443 120.562 157.439 120.809C157.431 122.566 156.809 124.266 155.68 125.613C154.017 127.831 152.215 129.941 150.283 131.93C148.802 133.461 147.223 134.893 145.556 136.218C144.38 137.161 143.117 137.99 141.784 138.693C140.991 139.15 140.108 139.428 139.197 139.509C138.021 139.497 136.865 139.193 135.836 138.623C134.75 138.055 133.88 137.146 133.361 136.036C133.365 135.414 133.44 134.794 133.584 134.188C133.778 133.391 134.025 132.607 134.323 131.842C134.667 130.931 135.148 129.822 135.766 128.516C136.384 127.21 137.183 125.572 138.165 123.601C137.383 123.601 136.865 123.796 136.61 124.187C134.295 127.292 132.313 129.834 130.663 131.813C129.012 133.791 127.595 135.356 126.41 136.505C125.541 137.414 124.555 138.203 123.477 138.852C122.847 139.224 122.137 139.439 121.407 139.479C120.31 139.376 119.249 139.035 118.298 138.48C117.347 137.924 116.528 137.169 115.899 136.265C114.529 134.2 113.843 131.755 113.94 129.279C113.907 125.659 114.597 122.07 115.969 118.721C117.212 115.653 118.937 112.804 121.078 110.28C122.994 108.017 125.298 106.114 127.882 104.661C130.018 103.398 132.441 102.7 134.921 102.631C136.436 102.587 137.941 102.89 139.32 103.517C140.773 104.304 142.064 105.356 143.127 106.62C144.652 105.527 146.302 104.621 148.043 103.922C149.041 103.499 150.1 103.237 151.181 103.147C151.628 103.141 152.07 103.254 152.46 103.474C152.849 103.695 153.173 104.015 153.398 104.403C153.152 105.341 152.807 106.514 152.366 107.922C151.924 109.33 151.443 110.808 150.923 112.356C150.407 113.921 149.877 115.485 149.333 117.049C148.79 118.613 148.287 120.091 147.826 121.483C147.384 122.864 146.993 124.07 146.652 125.103C146.406 125.825 146.219 126.567 146.095 127.32C146.095 127.812 146.416 128.059 147.057 128.059C147.422 128.003 147.772 127.878 148.09 127.689C148.796 127.298 149.464 126.84 150.084 126.323C150.921 125.658 151.932 124.758 153.116 123.624C154.301 122.49 155.693 121.059 157.293 119.331ZM140.2 111.277C138.82 109.998 137.514 109.357 136.282 109.353C135.199 109.353 133.992 109.92 132.663 111.054C131.211 112.326 129.942 113.793 128.891 115.412C127.696 117.228 126.712 119.174 125.958 121.214C125.207 123.134 124.809 125.175 124.785 127.238C124.749 127.803 124.906 128.363 125.231 128.827C125.359 129 125.527 129.14 125.719 129.236C125.912 129.331 126.125 129.38 126.34 129.379C126.782 129.379 127.532 128.86 128.592 127.824C129.874 126.534 131.071 125.163 132.176 123.718C133.506 122.017 134.886 120.083 136.317 117.917C137.723 115.771 139.019 113.555 140.2 111.277V111.277Z" fill="#C02D28"/>
<path d="M162.243 111.277C162.481 109.874 162.93 108.516 163.575 107.247C164.166 106.062 164.925 104.968 165.827 103.998C166.634 103.129 167.585 102.405 168.637 101.857C169.582 101.356 170.635 101.091 171.705 101.083C172.687 101.062 173.64 101.419 174.368 102.08C175.151 102.837 175.647 103.842 175.77 104.925C175.389 105.669 174.918 106.365 174.368 106.995C173.777 107.687 173.136 108.378 172.444 109.066C172.589 110.218 172.914 111.34 173.406 112.392C173.945 113.623 174.512 114.941 175.107 116.345C175.714 117.794 176.245 119.274 176.696 120.779C177.167 122.349 177.405 123.98 177.4 125.619C177.365 127.407 176.8 129.144 175.775 130.61C174.649 132.306 173.263 133.814 171.669 135.08C170.023 136.407 168.194 137.49 166.238 138.294C164.463 139.066 162.554 139.481 160.619 139.514C158.956 139.538 157.3 139.314 155.703 138.852C154.383 138.47 153.126 137.897 151.973 137.151C151.017 136.544 150.198 135.745 149.568 134.804C149.032 134.018 148.737 133.093 148.717 132.141C148.709 130.946 148.897 129.757 149.274 128.622C149.72 127.396 150.356 126.248 151.157 125.22C151.548 124.727 152.19 123.976 153.081 122.967C153.973 121.958 154.95 120.813 156.014 119.53C157.074 118.251 158.171 116.896 159.305 115.465C160.359 114.123 161.34 112.725 162.243 111.277V111.277ZM163.663 117.559C163.17 118.251 162.542 119.033 161.78 119.905C161.017 120.778 160.192 121.702 159.305 122.68C158.417 123.642 157.494 124.62 156.536 125.613C155.578 126.606 154.679 127.543 153.838 128.422C154.907 129.835 156.237 131.03 157.756 131.942C159.021 132.732 160.476 133.165 161.968 133.197C162.54 133.203 163.108 133.092 163.635 132.87C164.163 132.648 164.639 132.32 165.035 131.907C165.896 131.046 166.328 129.752 166.332 128.024C166.326 127.128 166.228 126.236 166.038 125.361C165.841 124.425 165.594 123.501 165.299 122.592C165.002 121.681 164.707 120.793 164.414 119.929C164.12 119.065 163.87 118.275 163.663 117.559Z" fill="#C02D28"/>
<path d="M206.066 119.483C206.113 119.73 206.15 119.976 206.177 120.222C206.177 120.469 206.212 120.715 206.212 120.961C206.238 122.725 205.611 124.436 204.453 125.765C202.674 128.192 200.696 130.466 198.54 132.564C196.948 134.108 195.229 135.517 193.402 136.775C192.132 137.664 190.751 138.383 189.296 138.916C188.372 139.258 187.4 139.456 186.416 139.503C184.715 139.507 183.056 138.983 181.666 138.004C180.276 137.025 179.224 135.638 178.656 134.036L185.383 112.333L183.606 112.685C183.327 111.85 183.176 110.978 183.16 110.098C183.191 108.955 183.48 107.835 184.005 106.819C184.4 105.971 185.029 105.252 185.817 104.749L187.812 104.526L190.915 94.8416C192.098 94.5451 193.314 94.3954 194.534 94.3958C195.966 94.3518 197.387 94.6557 198.675 95.2815C199.17 95.4983 199.612 95.8206 199.97 96.2258C200.327 96.6311 200.592 97.1095 200.746 97.6277L198.986 103.394L206.025 102.655C205.954 103.727 205.692 104.778 205.25 105.758C204.783 106.829 204.147 107.819 203.368 108.69L196.915 110.092L192.035 126.575C192.035 128.252 192.553 129.089 193.589 129.085C194.372 129.085 195.775 128.395 197.801 127.015C199.827 125.634 202.582 123.124 206.066 119.483Z" fill="#C02D28"/>
<path d="M237.476 118.521C237.578 119.057 237.627 119.601 237.623 120.146C237.549 121.096 237.338 122.031 236.995 122.921C236.665 123.854 236.205 124.737 235.629 125.542C232.18 130.176 228.682 133.662 225.135 136.001C221.921 138.239 218.111 139.465 214.195 139.52C210.156 139.52 207.125 138.486 205.104 136.417C203.082 134.349 202.071 131.59 202.071 128.141C202.081 126.836 202.23 125.536 202.517 124.264C202.786 122.995 203.13 121.743 203.549 120.516C204.45 117.924 205.693 115.464 207.245 113.201C208.67 111.097 210.372 109.195 212.307 107.547C214.068 106.051 216.046 104.831 218.172 103.928C220.096 103.092 222.169 102.653 224.267 102.637C227.321 102.637 229.65 103.29 231.253 104.596C232.047 105.253 232.678 106.085 233.095 107.028C233.511 107.971 233.702 108.998 233.652 110.028C233.637 110.849 233.486 111.661 233.206 112.433C232.932 113.268 232.536 114.058 232.033 114.779C231.453 115.442 230.795 116.033 230.074 116.539C228.818 117.464 227.51 118.316 226.156 119.09C224.552 120.029 222.679 121.006 220.536 122.023C218.252 123.102 215.91 124.054 213.521 124.874C213.465 125.166 213.428 125.462 213.409 125.759C213.409 126.106 213.374 126.475 213.374 126.868C213.353 127.473 213.453 128.075 213.668 128.641C213.884 129.206 214.211 129.722 214.63 130.159C215.466 131.023 216.821 131.455 218.694 131.455C220.814 131.455 223.45 130.477 226.601 128.522C229.753 126.567 233.378 123.233 237.476 118.521ZM221.733 108.544C221.262 108.623 220.826 108.84 220.478 109.166C219.793 109.75 219.2 110.434 218.718 111.195C217.968 112.318 217.301 113.494 216.724 114.714C215.95 116.361 215.307 118.065 214.8 119.812C216.782 118.958 218.708 117.979 220.566 116.879C221.63 116.263 222.615 115.518 223.498 114.662C224.207 113.768 224.577 112.652 224.542 111.512C224.542 109.533 223.606 108.544 221.733 108.544Z" fill="#C02D28"/>
<path d="M266.898 119.331C267.003 119.562 267.054 119.815 267.045 120.07V120.809C267.04 121.668 266.877 122.519 266.564 123.319C266.25 124.145 265.813 124.918 265.268 125.613C263.553 127.923 261.69 130.12 259.69 132.188C258.203 133.728 256.609 135.16 254.921 136.476C253.752 137.41 252.474 138.198 251.114 138.822C250.267 139.226 249.352 139.465 248.416 139.526C246.994 139.528 245.605 139.103 244.427 138.306C243.057 137.332 241.962 136.021 241.248 134.499C241.448 133.03 241.859 131.598 242.468 130.247C243.188 128.588 244.002 126.972 244.908 125.407C245.87 123.734 246.881 122.072 247.941 120.422C249 118.771 249.978 117.207 250.873 115.729C250.87 115.421 250.767 115.123 250.58 114.879C250.261 114.525 249.857 114.259 249.407 114.104C248.766 113.858 248.076 113.612 247.336 113.365C246.597 113.119 246.011 112.898 245.577 112.702C244.404 114.576 243.049 116.531 241.512 118.568C239.975 120.605 238.385 122.602 236.743 124.557C235.093 126.512 233.431 128.36 231.757 130.1C230.266 131.677 228.688 133.169 227.03 134.57C226.641 134.233 226.348 133.8 226.179 133.314C226.002 132.791 225.915 132.242 225.921 131.69C225.921 131.051 226.02 130.415 226.214 129.807C226.406 129.204 226.706 128.641 227.1 128.147C228.657 126.947 230.093 125.597 231.388 124.117C232.853 122.484 234.224 120.768 235.494 118.979C236.749 117.203 237.869 115.516 238.855 113.917C239.84 112.317 240.554 111.074 240.996 110.186C240.162 108.967 239.723 107.522 239.74 106.045C239.768 104.091 240.402 102.193 241.553 100.613C242.066 99.8572 242.739 99.2234 243.525 98.7571C244.311 98.2907 245.189 98.0033 246.099 97.9152C246.144 98.5875 246.295 99.2485 246.545 99.8743C246.894 100.609 247.443 101.231 248.128 101.669C249.267 102.419 250.48 103.05 251.747 103.552C253.312 104.217 255.431 104.968 258.106 105.804C259.352 106.156 260.536 106.696 261.619 107.406C262.433 107.996 262.839 109.007 262.839 110.438C262.343 111.951 261.698 113.41 260.915 114.797C260.024 116.443 259.085 118.085 258.1 119.724C257.114 121.362 256.203 122.926 255.367 124.416C254.659 125.608 254.113 126.888 253.742 128.223C253.734 128.378 253.764 128.534 253.828 128.675C253.892 128.817 253.989 128.942 254.111 129.038C254.34 129.229 254.629 129.333 254.927 129.332C255.487 129.228 256.018 129.002 256.481 128.669C257.428 128.079 258.34 127.437 259.214 126.745C260.464 125.763 261.66 124.716 262.798 123.607C264.097 122.336 265.463 120.91 266.898 119.331Z" fill="#C02D28"/>
<path d="M271.843 111.277C272.081 109.874 272.53 108.516 273.175 107.247C273.766 106.062 274.524 104.968 275.427 103.998C276.234 103.129 277.185 102.405 278.237 101.857C279.182 101.356 280.234 101.091 281.304 101.083C282.287 101.062 283.24 101.419 283.967 102.08C284.751 102.837 285.246 103.842 285.369 104.925C284.988 105.669 284.517 106.365 283.967 106.995C283.377 107.687 282.736 108.378 282.043 109.066C282.189 110.218 282.513 111.34 283.005 112.392C283.545 113.623 284.112 114.941 284.706 116.345C285.314 117.794 285.844 119.274 286.296 120.779C286.767 122.349 287.004 123.98 287 125.619C286.965 127.407 286.4 129.144 285.375 130.61C284.249 132.306 282.863 133.814 281.269 135.08C279.623 136.407 277.793 137.49 275.838 138.294C274.063 139.066 272.153 139.481 270.218 139.514C268.556 139.538 266.9 139.314 265.303 138.852C263.983 138.47 262.726 137.897 261.572 137.151C260.616 136.544 259.797 135.745 259.167 134.804C258.632 134.018 258.337 133.093 258.317 132.141C258.309 130.946 258.497 129.757 258.874 128.622C259.32 127.396 259.956 126.248 260.757 125.22C261.148 124.727 261.789 123.976 262.681 122.967C263.573 121.958 264.55 120.813 265.614 119.53C266.673 118.251 267.77 116.896 268.904 115.465C269.959 114.123 270.94 112.725 271.843 111.277V111.277ZM273.245 117.559C272.752 118.251 272.125 119.033 271.362 119.905C270.6 120.778 269.774 121.702 268.887 122.68C267.999 123.642 267.076 124.62 266.118 125.613C265.16 126.606 264.261 127.543 263.42 128.422C264.489 129.835 265.819 131.03 267.338 131.942C268.604 132.732 270.059 133.165 271.55 133.197C272.122 133.203 272.69 133.092 273.217 132.87C273.745 132.648 274.222 132.32 274.618 131.907C275.478 131.046 275.91 129.752 275.914 128.024C275.908 127.128 275.81 126.236 275.621 125.361C275.423 124.425 275.176 123.501 274.881 122.592C274.584 121.681 274.289 120.793 273.996 119.929C273.702 119.065 273.454 118.275 273.251 117.559H273.245Z" fill="#C02D28"/>
<path d="M121.53 77.1449C119.841 81.5598 118.243 86.2993 116.738 91.3633C115.232 96.4273 113.942 101.409 112.866 106.309C111.764 111.213 110.87 115.886 110.186 120.328C109.565 124.079 109.224 127.871 109.165 131.672C109.14 132.988 109.32 134.3 109.699 135.561C109.959 136.524 110.523 137.377 111.306 137.995C110.236 139.381 108.803 140.443 107.165 141.063C105.542 141.724 103.808 142.071 102.056 142.084C99.7713 142.148 97.5464 141.348 95.8265 139.843C94.1255 138.357 93.275 135.829 93.275 132.259C93.3184 130.449 93.481 128.644 93.7619 126.856C94.0864 124.553 94.5576 121.941 95.1755 119.02C95.7933 116.099 96.5285 112.916 97.381 109.471C98.2256 106.029 99.1348 102.557 100.109 99.0531C99.8292 99.0396 99.5495 99.0734 99.2814 99.1529C99.0646 99.2666 98.8808 99.4343 98.7477 99.6397L74.892 136.054C72.456 136.949 69.8905 137.443 67.296 137.514C65.8718 137.549 64.4612 137.231 63.1901 136.587C61.9648 135.905 61.0553 134.77 60.6561 133.426C60.8516 131.674 61.0296 129.719 61.1899 127.56C61.3502 125.402 61.5125 123.163 61.6767 120.844C61.8371 118.541 61.9837 116.22 62.1167 113.882C62.2496 111.543 62.3474 109.271 62.4099 107.066C62.4725 105.767 62.5057 104.567 62.5097 103.464V100.027C62.4958 99.6894 62.414 99.3582 62.2692 99.0531C62.1845 98.976 62.0837 98.9187 61.9742 98.8852C61.8646 98.8517 61.749 98.843 61.6357 98.8596C56.3761 108.338 51.8166 116.306 47.957 122.762C44.8061 128.145 41.3779 133.361 37.6862 138.388C34.6987 142.346 32.0044 145.187 29.6034 146.911C27.2023 148.636 24.8561 149.496 22.5646 149.492C21.3532 149.518 20.1504 149.284 19.0373 148.805C17.9242 148.326 16.9268 147.614 16.1124 146.717C14.3918 144.868 13.2069 142.351 12.5578 139.168C12.9957 139.316 13.4569 139.381 13.9186 139.362C16.6559 139.362 19.3345 138.21 21.9545 135.907C24.9526 133.189 27.6452 130.152 29.9846 126.85C32.7219 123.12 35.5296 118.867 38.4077 114.093C41.2858 109.318 44.3535 104.465 47.6109 99.5341C48.8575 97.5266 50.3447 95.6789 52.0395 94.0321C53.3245 92.849 55.0148 92.2044 56.7613 92.2314C57.9127 92.2562 59.057 92.4197 60.1693 92.7182C60.3249 92.7427 60.484 92.7333 60.6358 92.6907C60.7875 92.6482 60.9282 92.5734 61.0485 92.4715C61.1687 92.3697 61.2656 92.2431 61.3325 92.1005C61.3994 91.9578 61.4348 91.8024 61.4362 91.6448C60.9826 86.3853 59.3931 82.3614 56.6675 79.5733C53.9419 76.7852 50.0803 75.3891 45.0828 75.3852C41.0723 75.3661 37.1212 76.3543 33.592 78.2594C30.0317 80.1675 26.8745 82.747 24.2949 85.8554C18.7881 92.568 15.7783 100.982 15.778 109.664C15.778 112.652 16.6872 114.607 18.5055 115.53C17.4524 116.985 16.0877 118.188 14.511 119.049C12.9888 119.885 11.2794 120.321 9.54282 120.316C8.33408 120.346 7.13122 120.138 6.00298 119.703C4.87475 119.269 3.84325 118.616 2.96743 117.782C1.18036 116.097 0.288779 113.402 0.29269 109.699C0.278838 105.623 0.953078 101.574 2.28701 97.7216C3.62362 93.8799 5.45755 90.2298 7.74206 86.8643C10.0589 83.4424 12.7895 80.3197 15.8719 77.5673C18.9438 74.8091 22.3071 72.3939 25.9021 70.3642C29.4198 68.3676 33.1605 66.7926 37.0469 65.6717C40.8016 64.5772 44.6912 64.0145 48.6022 64C58.1437 64 65.3174 66.9543 70.1233 72.863C74.9292 78.7717 77.3302 87.9886 77.3263 100.514C77.3263 101.425 77.3106 102.625 77.2794 104.115C77.2481 105.605 77.1992 107.13 77.1327 108.69C77.0662 110.255 77.0017 111.699 76.9392 113.025C76.8766 114.351 76.8121 115.309 76.7456 115.899C77.025 115.913 77.3047 115.88 77.5726 115.8C77.7731 115.696 77.9293 115.523 78.0126 115.313L103.622 77.9251C104.404 76.6268 105.118 75.9777 105.763 75.9777C105.957 75.9777 106.232 75.9777 106.59 75.9307C106.87 75.9125 107.148 75.8633 107.417 75.7841C108.391 74.6814 109.885 74.13 111.898 74.13C113.383 74.1583 114.857 74.3871 116.28 74.8104C118.122 75.3631 119.886 76.1476 121.53 77.1449V77.1449Z" fill="#C02D28"/>
<g opacity="0.4">
<path opacity="0.4" d="M62.5214 100.027C62.5076 99.6894 62.4257 99.3582 62.2809 99.0531C62.1962 98.976 62.0955 98.9187 61.9859 98.8852C61.8764 98.8517 61.7608 98.843 61.6474 98.8596C56.3879 108.338 51.8283 116.306 47.9687 122.762C44.8178 128.145 41.3896 133.361 37.698 138.388C34.7124 142.348 27.2806 130.581 30.0081 126.85C32.7356 123.12 35.5394 118.867 38.4312 114.093C41.3229 109.318 44.3789 104.473 47.6285 99.54C48.8751 97.5325 50.3623 95.6848 52.0571 94.038C53.3422 92.8549 55.0324 92.2103 56.779 92.2373C57.9304 92.2621 59.0746 92.4255 60.1869 92.7241C60.3426 92.7485 60.5017 92.7392 60.6534 92.6966C60.8051 92.654 60.9458 92.5793 61.0661 92.4774C61.1863 92.3755 61.2832 92.249 61.3501 92.1063C61.417 91.9637 61.4524 91.8083 61.4539 91.6507C61.3032 89.658 60.9214 87.6895 60.3159 85.785C60.0402 84.9404 59.8115 84.4301 59.7294 84.1896C61.6357 88.0726 62.3689 93.3576 62.5214 96.8477C62.5449 97.7686 62.5214 100.027 62.5214 100.027Z" fill="url(#paint0_linear)"/>
</g>
<path opacity="0.41" d="M107.411 75.7841C106.508 77.3678 102.044 93.2637 100.109 99.0531C99.7792 99.0167 99.446 99.0651 99.1407 99.1939C96.2079 101.247 88.0312 102.965 86.7407 102.49C89.7557 98.226 100.678 82.1835 103.616 77.925C103.804 77.62 104.69 75.9952 105.757 75.9776C105.828 75.9776 106.009 75.9776 106.455 75.9424C106.779 75.9251 107.099 75.8719 107.411 75.7841V75.7841Z" fill="url(#paint1_linear)"/>
<defs>
<linearGradient id="paint0_linear" x1="29.4098" y1="111.694" x2="62.5273" y2="111.694" gradientUnits="userSpaceOnUse">
<stop offset="0.67" stop-opacity="0"/>
<stop offset="1"/>
</linearGradient>
<linearGradient id="paint1_linear" x1="87.9373" y1="110.292" x2="105.511" y2="79.8548" gradientUnits="userSpaceOnUse">
<stop offset="0.4" stop-opacity="0"/>
<stop offset="1" stop-color="#3D3D3D"/>
</linearGradient>
</defs>
</svg>
